<?xml version="1.0" encoding="utf-8"?>
<!-- Generator: Adobe Illustrator 17.0.0, SVG Export Plug-In . SVG Version: 6.00 Build 0)  -->
<!DOCTYPE svg PUBLIC "-//W3C//DTD SVG 1.1//EN" "http://www.w3.org/Graphics/SVG/1.1/DTD/svg11.dtd">
<svg version="1.1" id="Calque_1" xmlns="http://www.w3.org/2000/svg" xmlns:xlink="http://www.w3.org/1999/xlink" x="0px" y="0px"
	 width="390px" height="90px" viewBox="400.275 375.945 390 90" enable-background="new 400.275 375.945 390 90"
	 xml:space="preserve">
<polygon fill="#C1DFE8" points="478.633,465.945 400.275,465.945 400.275,375.945 513.55,375.945 "/>
<polygon fill="#FCE1CB" points="513.55,375.945 790.275,376.556 790.275,465.945 478.068,465.945 "/>
<g>
	
		<path fill="none" stroke="#FFFFFF" stroke-width="3.1557" stroke-linecap="round" stroke-linejoin="round" stroke-miterlimit="10" d="
		M414.861,398.391h32.136c1.836,0,3.589,0.501,5.092,1.502l0,0c2.254,1.419,3.088,5.426,3.84,7.93l8.43,26.877
		c0.25,0.751,0.25,1.586,0.167,2.337c-0.417,2.087-1.92,5.759-7.095,6.594c-7.679,1.169-10.183-7.262-10.183-7.262
		s-1.336,7.262-8.848,7.596c-7.512,0.334-9.098-6.427-9.098-6.427L414.861,398.391z"/>
	
		<path fill="none" stroke="#FFFFFF" stroke-width="3.1557" stroke-linecap="round" stroke-linejoin="round" stroke-miterlimit="10" d="
		M464.609,437.12l14.19-38.646h-15.442c0,0-6.594,0.918-6.594,11.936"/>
	
		<line fill="none" stroke="#FFFFFF" stroke-width="3.1557" stroke-linecap="round" stroke-linejoin="round" stroke-miterlimit="10" x1="447.247" y1="436.453" x2="434.894" y2="398.391"/>
</g>
<path fill="#FFFFFF" d="M579.199,429.913c0,0.723-0.12,1.205-0.12,1.807c-1.325,0-2.651,0-4.096,0c0-6.988,0-13.855,0-20.843
	c1.325,0,2.651,0,4.096,0c0,2.41,0,4.819,0,7.349c1.325-0.964,2.41-1.687,3.976-1.807c1.928-0.12,3.614,0.361,5.06,1.687
	c3.735,3.373,3.253,10-0.964,12.891c-2.53,1.687-5.181,1.446-7.349-0.482C579.561,430.154,579.44,430.033,579.199,429.913z
	 M579.079,424.13c0,2.048,1.205,3.735,2.771,4.096c2.169,0.482,3.976-0.843,4.458-3.132c0.482-2.289-0.964-4.699-2.891-5.181
	c-0.361-0.12-0.723-0.12-1.084-0.12C580.404,420.034,579.079,421.841,579.079,424.13z"/>
<path fill="#FFFFFF" d="M630.643,410.757c1.325,0,2.651,0,4.096,0c0,1.687,0,3.494,0,5.301c0,1.687,0,3.494,0,5.422
	c0.241-0.241,0.482-0.361,0.602-0.482c1.205-1.205,2.41-2.53,3.614-3.735c0.361-0.361,0.843-0.602,1.325-0.602
	c1.446-0.12,2.771,0,4.458,0c-2.048,2.169-3.855,4.096-5.783,6.144c2.048,3.012,3.976,5.903,6.024,9.036c-1.687,0-3.132,0-4.699,0
	c-0.241,0-0.602-0.361-0.723-0.602c-1.084-1.687-2.289-3.373-3.373-5.06c-0.964,0.723-1.687,1.446-1.446,2.651
	c0.12,0.964,0,1.928,0,3.012c-1.325,0-2.651,0-4.096,0C630.643,424.732,630.643,417.745,630.643,410.757z"/>
<path fill="#FFFFFF" d="M561.73,427.262c1.807,1.928,4.337,1.566,6.988-0.964c0.361,0.361,0.843,0.843,1.205,1.205
	c0.361,0.361,0.723,0.843,1.084,1.205c-2.048,2.651-6.265,3.855-9.518,2.651c-3.012-1.084-4.94-3.976-4.94-7.47
	c0-4.699,3.976-8.193,8.674-7.711c2.41,0.241,4.337,1.205,5.662,3.132c0.241,0.361,0.482,0.843,0.723,1.325
	c0.602,1.687,0.361,2.169-1.205,2.891c-2.771,1.205-5.542,2.289-8.313,3.494C561.971,427.142,561.85,427.262,561.73,427.262z
	 M567.272,421.6c-0.602-1.566-1.928-2.048-3.855-1.566c-1.807,0.482-3.012,2.289-2.651,4.217
	C562.935,423.407,565.103,422.564,567.272,421.6z"/>
<path fill="#FFFFFF" d="M608.957,424.13c0,4.458-3.373,7.831-8.072,7.831c-4.578,0-8.072-3.373-8.072-7.711
	c0-4.458,3.373-7.831,8.072-7.952C605.464,416.178,608.957,419.672,608.957,424.13z M597.151,424.01
	c0,2.169,1.205,3.855,2.891,4.217c2.169,0.482,3.855-0.482,4.578-2.53c0.723-2.048-0.12-4.458-1.928-5.422
	C600.042,418.949,597.151,420.877,597.151,424.01z"/>
<path fill="#FFFFFF" d="M611.246,424.13c0-4.458,3.373-7.711,7.952-7.831c4.578-0.12,8.072,3.373,8.072,8.072
	c0,4.337-3.494,7.59-8.072,7.59C614.74,431.961,611.246,428.588,611.246,424.13z M623.174,424.13c0-2.41-1.566-4.217-3.855-4.217
	s-3.855,1.807-3.855,4.337c0,2.41,1.687,4.217,3.855,4.217C621.608,428.347,623.174,426.54,623.174,424.13z"/>
<path fill="#FFFFFF" d="M548.357,417.263c1.446,0,2.891,0,4.337,0c0,0.361,0.12,0.602,0.12,0.964c0,3.976,0,2.771,0,6.747
	c0,3.012-1.807,5.903-4.217,6.867c-2.891,1.084-6.024,0.361-8.193-1.928c-0.12-0.12-0.12-0.12-0.241-0.241
	c-2.771,2.651-6.024,3.373-9.036,1.807c-2.289-1.205-3.373-3.253-3.373-5.542c-0.241-4.578-0.12-3.976-0.12-8.674
	c1.446,0,2.771,0,4.337,0c0,0.361,0,0.723,0,1.084c0,3.735,0,2.289,0,6.024c0,0.723,0.121,1.446,0.361,2.169
	c0.361,1.084,1.205,1.687,2.41,1.687c1.205,0,2.169-0.482,2.53-1.566c0.241-0.723,0.482-1.446,0.482-2.169c0-3.735,0-2.289,0-6.024
	c0-0.361,0-0.602,0-1.084c1.566,0,3.012,0,4.578,0c0,0.361,0,0.723,0,1.084c0,3.735,0,2.289,0,6.024c0,0.843,0.241,1.687,0.602,2.41
	c0.482,1.084,1.446,1.325,2.53,1.325c1.084,0,1.928-0.482,2.289-1.446c0.241-0.723,0.482-1.446,0.482-2.169c0-3.735,0-2.289,0-6.024
	C548.357,417.986,548.357,417.624,548.357,417.263z"/>
</svg>
