<?xml version="1.0" encoding="utf-8"?>
<!-- Generator: Adobe Illustrator 17.0.0, SVG Export Plug-In . SVG Version: 6.00 Build 0)  -->
<!DOCTYPE svg PUBLIC "-//W3C//DTD SVG 1.1//EN" "http://www.w3.org/Graphics/SVG/1.1/DTD/svg11.dtd">
<svg version="1.1" id="Calque_1" xmlns="http://www.w3.org/2000/svg" xmlns:xlink="http://www.w3.org/1999/xlink" x="0px" y="0px"
	 width="70px" height="90px" viewBox="248.465 238.465 70 90" enable-background="new 248.465 238.465 70 90" xml:space="preserve">
<g>
	<g>
		<path fill="#FFFFFF" d="M291.386,286.513c0.117,0.084,0.272,0.168,0.392,0.287c3.556,3.55,15.67,15.656,19.237,19.194
			c0.458,0.455,0.596,0.944,0.359,1.496c-0.226,0.528-0.481,1.078-0.856,1.5c-0.791,0.888-1.637,1.736-2.526,2.526
			c-0.421,0.375-0.974,0.627-1.502,0.852c-0.551,0.234-1.04,0.103-1.496-0.357c-3.519-3.547-15.626-15.62-19.155-19.156
			c-0.109-0.109-0.176-0.26-0.248-0.369c-9.047,5.904-20.606,3.279-26.439-4.699c-5.711-7.812-4.93-18.471,1.854-25.321
			c6.689-6.753,17.335-7.646,25.097-2.148C294.035,265.938,297.023,277.218,291.386,286.513z M261.79,276.215
			c0.018,7.183,5.887,13.033,13.045,13.003c7.203-0.03,13.008-5.86,12.991-13.048c-0.017-7.194-5.861-13-13.058-12.973
			C267.591,263.225,261.772,269.061,261.79,276.215z"/>
	</g>
	<path fill="#FFFFFF" d="M298.591,309.272l-4.077-4.148c-2.426-2.469-2.392-6.474,0.077-8.9l1.116-1.097
		c2.469-2.426,6.474-2.392,8.9,0.077l4.077,4.148c2.426,2.469,2.392,6.474-0.077,8.9l-1.116,1.097
		C305.022,311.775,301.017,311.74,298.591,309.272z"/>
</g>
</svg>
